<svg xmlns="http://www.w3.org/2000/svg" width="20" height="20" viewBox="0 0 20 20" fill="none">
  <path d="M15 8.12556H13.75C13.7495 7.62834 13.5518 7.15163 13.2003 6.80004C12.8488 6.44846 12.3721 6.25072 11.875 6.25022V5C12.7035 5.00099 13.4978 5.33061 14.0836 5.91655C14.6694 6.50249 14.999 7.29691 15 8.12556Z" fill="white"/>
  <path d="M17.4997 8.125H16.2497C16.2483 6.96508 15.787 5.85305 14.9668 5.03287C14.1466 4.21269 13.0346 3.75132 11.8747 3.75V2.5C13.366 2.50165 14.7958 3.09482 15.8503 4.14935C16.9048 5.20389 17.498 6.63367 17.4997 8.125ZM16.2497 18.125H16.1434C3.86216 17.4187 2.11841 7.05625 1.87466 3.89375C1.83656 3.39797 1.99696 2.90736 2.32057 2.52983C2.64418 2.1523 3.1045 1.91878 3.60028 1.88063C3.64986 1.87688 3.69966 1.875 3.74966 1.875H7.04341C7.29375 1.87476 7.53841 1.94969 7.74568 2.0901C7.95294 2.23051 8.11328 2.42992 8.20591 2.6625L9.15591 5C9.24738 5.22722 9.27007 5.4763 9.22118 5.71631C9.17229 5.95631 9.05397 6.17667 8.88091 6.35L7.54966 7.69375C7.75676 8.87583 8.3224 9.96561 9.16987 10.8153C10.0173 11.665 11.1056 12.2335 12.2872 12.4437L13.6434 11.1C13.8193 10.9288 14.0418 10.8133 14.283 10.7677C14.5241 10.7221 14.7734 10.7486 14.9997 10.8438L17.3559 11.7875C17.585 11.8831 17.7804 12.0446 17.9173 12.2517C18.0542 12.4587 18.1264 12.7018 18.1247 12.95V16.25C18.1247 16.7473 17.9271 17.2242 17.5755 17.5758C17.2239 17.9275 16.7469 18.125 16.2497 18.125ZM3.74966 3.125C3.66758 3.12475 3.58626 3.14068 3.51034 3.17186C3.43441 3.20304 3.36538 3.24887 3.30716 3.30673C3.24895 3.36459 3.20271 3.43336 3.17107 3.50909C3.13944 3.58483 3.12303 3.66605 3.12278 3.74813C3.12278 3.76563 3.12341 3.78292 3.12466 3.8C3.41216 7.5 5.25591 16.25 16.2122 16.875C16.3776 16.8849 16.5402 16.8287 16.6642 16.7188C16.7882 16.6088 16.8634 16.4542 16.8734 16.2887L16.8747 16.25V12.95L14.5184 12.0062L12.7247 13.7875L12.4247 13.75C6.98716 13.0687 6.24966 7.63125 6.24966 7.575L6.21216 7.275L7.98716 5.48125L7.04966 3.125H3.74966Z" fill="white"/>
</svg>