<svg width="192" height="45" viewBox="0 0 192 45" fill="none" xmlns="http://www.w3.org/2000/svg">
<path d="M27.052 35V9.8H39.184C41.536 9.8 43.564 10.184 45.268 10.952C46.996 11.72 48.328 12.824 49.264 14.264C50.2 15.68 50.668 17.36 50.668 19.304C50.668 21.248 50.2 22.928 49.264 24.344C48.328 25.76 46.996 26.864 45.268 27.656C43.564 28.424 41.536 28.808 39.184 28.808H31.768L35.548 25.172V35H27.052ZM35.548 26.108L31.768 22.256H38.644C39.82 22.256 40.684 21.992 41.236 21.464C41.812 20.936 42.1 20.216 42.1 19.304C42.1 18.392 41.812 17.672 41.236 17.144C40.684 16.616 39.82 16.352 38.644 16.352H31.768L35.548 12.5V26.108ZM61.2303 19.16H72.4623V25.28H61.2303V19.16ZM61.8063 28.592H74.4063V35H53.4543V9.8H73.9383V16.208H61.8063V28.592ZM83.149 35V16.388H75.769V9.8H99.025V16.388H91.645V35H83.149ZM101.232 35V9.8H113.364C115.716 9.8 117.744 10.184 119.448 10.952C121.176 11.72 122.508 12.824 123.444 14.264C124.38 15.68 124.848 17.36 124.848 19.304C124.848 21.248 124.38 22.928 123.444 24.344C122.508 25.736 121.176 26.804 119.448 27.548C117.744 28.292 115.716 28.664 113.364 28.664H105.948L109.728 25.172V35H101.232ZM116.316 35L110.124 25.82H119.124L125.388 35H116.316ZM109.728 26.108L105.948 22.256H112.824C114 22.256 114.864 21.992 115.416 21.464C115.992 20.936 116.28 20.216 116.28 19.304C116.28 18.392 115.992 17.672 115.416 17.144C114.864 16.616 114 16.352 112.824 16.352H105.948L109.728 12.5V26.108ZM141.268 35.576C139.228 35.576 137.332 35.252 135.58 34.604C133.852 33.956 132.352 33.044 131.08 31.868C129.808 30.668 128.812 29.264 128.092 27.656C127.396 26.048 127.048 24.296 127.048 22.4C127.048 20.48 127.396 18.728 128.092 17.144C128.812 15.536 129.808 14.144 131.08 12.968C132.352 11.768 133.852 10.844 135.58 10.196C137.332 9.548 139.228 9.224 141.268 9.224C143.332 9.224 145.228 9.548 146.956 10.196C148.684 10.844 150.184 11.768 151.456 12.968C152.728 14.144 153.712 15.536 154.408 17.144C155.128 18.728 155.488 20.48 155.488 22.4C155.488 24.296 155.128 26.048 154.408 27.656C153.712 29.264 152.728 30.668 151.456 31.868C150.184 33.044 148.684 33.956 146.956 34.604C145.228 35.252 143.332 35.576 141.268 35.576ZM141.268 28.7C142.06 28.7 142.792 28.556 143.464 28.268C144.16 27.98 144.76 27.572 145.264 27.044C145.792 26.492 146.2 25.832 146.488 25.064C146.776 24.272 146.92 23.384 146.92 22.4C146.92 21.416 146.776 20.54 146.488 19.772C146.2 18.98 145.792 18.32 145.264 17.792C144.76 17.24 144.16 16.82 143.464 16.532C142.792 16.244 142.06 16.1 141.268 16.1C140.476 16.1 139.732 16.244 139.036 16.532C138.364 16.82 137.764 17.24 137.236 17.792C136.732 18.32 136.336 18.98 136.048 19.772C135.76 20.54 135.616 21.416 135.616 22.4C135.616 23.384 135.76 24.272 136.048 25.064C136.336 25.832 136.732 26.492 137.236 27.044C137.764 27.572 138.364 27.98 139.036 28.268C139.732 28.556 140.476 28.7 141.268 28.7ZM158.572 35V9.8H167.068V35H158.572ZM171.157 35V9.8H179.653V28.412H191.029V35H171.157Z" fill="white"/>
<path d="M1.31817 30.7647C-3.34564 22.9885 5.42342 9.58824 11.1708 5C16.4051 9.23529 25.3341 22.2952 20.7159 30.7647C17.6367 36.4118 4.70501 36.4118 1.31817 30.7647Z" fill="white"/>
<path d="M8.67767 38.6353C2.74191 28.7854 13.9025 11.8118 21.2174 6C27.8792 11.3647 39.2434 27.9073 33.3657 38.6353C29.4467 45.7882 12.9882 45.7882 8.67767 38.6353Z" fill="white" stroke="#F40404" stroke-width="2"/>
</svg>
